# xmcd
#
# Track frame offsets:
#	150
#	14270
#	27072
#	39440
#	51550
#	66670
#	81887
#	105347
#	117982
#	132362
#	150887
#	165397
#	202580
#	215550
#	228417
#	239910
#	257900
#	272295
#	287865
#	304820
#
# Disc length: 4238 seconds
#
# Revision: 0
# Processed by: cddbd v1.5.2PL0 Copyright (c) Steve Scherf et al.
# Submitted via: EasyCDDAExtractor 16.0.8.2
#
DISCID=14108c14
DTITLE=Συλλογικός δίσκος - Απόψε στου Θωμά-Κώστας Φέρρης
DYEAR=1991
DGENRE=Ρεμπέτικη
TTITLE0=Χριστοπούλου Χρυσούλα-χορωδία - Στου Θωμά [Σ. Ξαρχάκος-Κ. Φέρρης]
TTITLE1=Ξηντάρης Γιώργος-χορωδία - Το χαρέμι στο χαμάμ [Ανέστος Δελλιάς]
TTITLE2=Χριστοπούλου Χρυσούλα-χορωδία - Θα πάω κει στην Αραπιά [Β. Τσιτσάνης]
TTITLE3=Μαραγκόππουλος Νίκος-χορωδία - Ρίξε τσιγγάνα τα χαρτιά [Μ. Βαμβακάρης]
TTITLE4=Χριστοπούλου Χρυσούλα-χορωδία - Ο τρελλός τσιγγάνος [Β. Τσιτσάνης]
TTITLE5=Χριστοπούλου Χρυσούλα - Κατσιβέλλα [Γ. Μητσάκης]
TTITLE6=Μπαγιώκης Γιώργος - Μαντουμπάλα [Σ. Καζαντζίδης]
TTITLE7=Χριστοπούλου Χρυσούλα - Η σκούνα [Μ. Χιώτης]
TTITLE8=Χριστοπούλου Χρυσούλα-χορωδία - Οι γλάροι [Ν. Μεϊμάρης]
TTITLE9=Ξηντάρης Γιώργος - Η τράτα [ανώνυμος]
TTITLE10=Χριστοπούλου Χρυσούλα - Γκιουλ Μπαχάρ [Β. Τσιτσάνης]
TTITLE11=Μαραγκόπουλος Νίκος - Καϊξής [Α. Χατζηχρήστος-Γ. Φωτίδας]
TTITLE12=Χριστοπούλου Χρυσούλα - Τι σε μέλλει εσένανε [ανώνυμος]
TTITLE13=Μαραγκόπουλος Νίκος-χορωδία - Η πεντάμορφη [Α. Χατζηχρήστος]
TTITLE14=Χριστοπούλου Χρυσούλα-χορωδία - Εβίβα ρεμπέτες [Α. Καλδάρας]
TTITLE15=Ξηντάρης Γιώργος-χορωδία - Ο κόκκορας [Β. Τσιτσάνης-Γ. Τσάκαλος]
TTITLE16=Τσίγγος Κώστας-Δασκαλάκη Ειρήνη - Πολυτεχνίτης [Μ. Βαμβακάρης]
TTITLE17=Τσίγγος Κώστας - Ισοβίτης [Μ. Βαμβακάρης-Κ. Τσίγκος]
TTITLE18=Ξηντάρης Γιώργος - Ντυμένη σαν αρχόντισσα [Στέλιος Κηρομύτης]
TTITLE19=Ξηντάρης Γιώργος - Σού 'χει λάχει [Γ. Μπάτης]
EXTD=
EXTT0=
EXTT1=
EXTT2=
EXTT3=
EXTT4=
EXTT5=
EXTT6=
EXTT7=
EXTT8=
EXTT9=
EXTT10=
EXTT11=
EXTT12=
EXTT13=
EXTT14=
EXTT15=
EXTT16=
EXTT17=
EXTT18=
EXTT19=
PLAYORDER=
